<svg width="121" height="39" viewBox="0 0 121 39" fill="none" xmlns="http://www.w3.org/2000/svg">
<path d="M7.97428 12.447C6.17591 12.447 5.27673 12.9778 5.27673 14.0395C5.27673 15.0459 6.21565 15.7943 8.09349 16.2849L11.3172 17.1416C14.6372 18.0131 16.2971 19.9315 16.2971 22.8968C16.3271 23.8361 16.151 24.7705 15.7811 25.6344C15.4113 26.4983 14.8566 27.2707 14.1562 27.8972C12.7284 29.1897 10.4567 29.8359 7.34121 29.8359C4.22572 29.8359 1.79702 29.4002 0.0551114 28.5287C0.0279797 28.231 0.0148249 27.9318 0.0148249 27.6309C-0.00710745 26.2323 0.300457 24.8483 0.912637 23.5907H4.29999C4.64752 24.2257 4.8823 24.9161 4.9939 25.6313C5.75445 25.8202 6.53742 25.9032 7.32065 25.878C9.71482 25.878 10.9122 25.1978 10.9127 23.8373C10.9165 23.6317 10.8741 23.4279 10.7888 23.2408C10.7034 23.0537 10.5772 22.8881 10.4194 22.7562C9.84088 22.3547 9.1892 22.0706 8.50129 21.92L5.27673 20.9778C3.82964 20.632 2.49477 19.9226 1.39854 18.9166C0.906988 18.3716 0.530957 17.7326 0.293139 17.0382C0.0553203 16.3438 -0.0393553 15.6085 0.0148249 14.8765C0.000890358 14.0257 0.189831 13.1839 0.566 12.4207C0.942169 11.6575 1.49474 10.9949 2.17796 10.4877C3.62005 9.34601 5.68124 8.77487 8.36152 8.77432C10.6836 8.70952 12.995 9.11214 15.1584 9.95825C15.1853 10.2323 15.1987 10.5042 15.1987 10.7738C15.2118 12.1322 14.9042 13.4744 14.3009 14.6915H10.9497C10.6032 14.0854 10.3681 13.4221 10.2558 12.7331C9.50876 12.5447 8.74143 12.4486 7.97099 12.447" fill="#00997B"/>
<path d="M16.3408 0.529479C17.7314 0.192933 19.1558 0.0153031 20.5865 0C21.8904 0 22.9924 0.0405605 23.8924 0.121682V24.9793C24.7422 25.2523 25.5126 25.7283 26.137 26.3663L25.7259 29.5102H16.3408L15.9297 26.3663C16.534 25.7038 17.3114 25.2234 18.1742 24.9793V5.0613C17.3202 4.79662 16.5477 4.3187 15.9297 3.67265L16.3408 0.529479ZM31.4844 29.5102L24.2591 18.9379L28.7498 13.1005C28.3602 12.8958 28.0244 12.602 27.7698 12.243L28.1809 9.10063H37.1574L37.5684 12.243C36.6559 13.1825 35.4708 13.811 34.1811 14.0394L30.2626 18.5293L34.8742 24.6134C36.2119 24.8141 37.4536 25.4275 38.426 26.3679L38.0149 29.5119L31.4844 29.5102Z" fill="#00997B"/>
<path d="M44.857 34.2444C45.347 34.2444 45.8704 33.7889 46.4273 32.878C47.0166 31.8794 47.4116 30.7783 47.5915 29.6329L40.8974 13.7953C39.8697 13.5457 38.9349 13.0074 38.2031 12.2439L38.6142 9.10156H47.9993L48.4104 12.2439C47.9153 12.7762 47.2998 13.1822 46.6156 13.4278L48.8601 19.5941C49.3356 20.8191 49.6776 22.0918 49.8804 23.3901L50.0021 23.9656H50.5735C50.8178 22.5042 51.2007 21.0693 51.7172 19.6805L53.8803 13.6391C53.0574 13.3826 52.3222 12.9017 51.7575 12.2505L52.1686 9.10814H61.1426L61.5536 12.2505C60.8247 13.026 59.8903 13.5784 58.8594 13.843L52.1217 29.7545C51.3507 31.7985 50.3657 33.7552 49.1832 35.592C48.6121 36.3736 47.8569 37.0024 46.9847 37.4224C46.1124 37.8425 45.15 38.0409 44.1828 38.0001C43.2991 38.0621 42.412 37.946 41.574 37.6586C40.7361 37.3712 39.9644 36.9183 39.3048 36.327C39.2777 36.0548 39.2646 35.7819 39.2646 35.5097C39.2577 34.0428 39.5784 32.5928 40.2035 31.2657H43.5892C44.0444 32.1928 44.2818 33.2116 44.2831 34.2444H44.857Z" fill="#00997B"/>
<path d="M71.0989 0.530301C72.5574 0.188031 74.0496 0.0101558 75.5477 0C76.9624 0 78.1732 0.0408346 79.1801 0.122504V24.6117C79.9576 24.7359 80.7136 24.9698 81.4254 25.3065V28.5294C79.4951 29.4659 77.3645 29.9142 75.2205 29.835C74.9006 29.6579 74.6271 29.4077 74.4222 29.1049C74.1876 28.811 74.0393 28.4578 73.9938 28.0846C73.2943 28.628 72.5075 29.0487 71.6671 29.3285C70.7647 29.6603 69.8117 29.833 68.8503 29.8391C65.9118 29.8391 63.7827 29.0443 62.4628 27.4548C61.143 25.8653 60.4841 23.2579 60.4863 19.6327C60.4863 15.5218 61.4932 12.6373 63.507 10.9793C65.3486 9.48448 67.6667 8.70235 70.0375 8.77587C71.1925 8.77819 72.3432 8.91616 73.466 9.18696V5.14187C72.4274 4.90553 71.4697 4.39864 70.6903 3.67265L71.0989 0.530301ZM69.7111 25.6732C70.3979 25.7039 71.0839 25.597 71.7288 25.3587C72.3736 25.1203 72.9643 24.7554 73.466 24.2853V13.3504C72.303 13.0719 71.1108 12.9339 69.915 12.9394C69.3492 12.912 68.7882 13.0551 68.3045 13.35C67.8208 13.6449 67.4367 14.0781 67.2018 14.5936C66.5578 16.1562 66.2718 17.8432 66.3649 19.5307C66.3649 21.7232 66.6373 23.2946 67.1821 24.2451C67.4251 24.6985 67.7921 25.0736 68.2401 25.3265C68.6882 25.5793 69.1989 25.6996 69.7128 25.6732" fill="#00997B"/>
<path d="M91.1394 29.8369C87.8737 29.8369 85.4176 28.9662 83.7711 27.2249C82.1246 25.4835 81.3024 22.9529 81.3046 19.6329C81.2636 17.8599 81.5545 16.0948 82.1621 14.4286C82.629 13.1205 83.4314 11.9581 84.4889 11.0577C86.3718 9.54208 88.7259 8.7337 91.1427 8.77284C93.6733 8.77284 95.612 9.4188 96.9587 10.7107C98.3055 12.0026 98.9788 14.3225 98.9788 17.6704C98.9788 19.6294 98.0128 20.6088 96.0807 20.6088H87.2201C87.3297 22.3239 87.7718 23.535 88.5463 24.242C89.6048 25.0395 90.9207 25.4176 92.2411 25.3034C93.1356 25.3069 94.0269 25.1964 94.8934 24.9746C95.5307 24.8319 96.1479 24.611 96.731 24.3168L97.3024 23.988L98.5258 27.2536C98.3027 27.5058 98.0647 27.7444 97.813 27.9681C97.0842 28.4637 96.286 28.8486 95.4443 29.1101C94.0642 29.6059 92.6057 29.8479 91.1394 29.8246M93.7103 16.9674C93.7694 16.5072 93.7968 16.0436 93.7926 15.5796C93.7609 14.9472 93.5327 14.3405 93.1397 13.844C92.8666 13.5165 92.517 13.2614 92.1217 13.1012C91.7265 12.941 91.2979 12.8807 90.8738 12.9256C90.4158 12.8968 89.957 12.9698 89.5306 13.1394C89.1041 13.309 88.7205 13.571 88.4073 13.9065C87.7185 14.877 87.3222 16.0245 87.2653 17.2133L93.7103 16.9674Z" fill="#00997B"/>
<path d="M113.152 17.4652C113.22 18.0764 113.253 18.691 113.251 19.3061C113.251 21.5637 112.931 23.1897 112.291 24.184C111.975 24.6732 111.534 25.0691 111.014 25.3309C110.493 25.5926 109.913 25.7107 109.331 25.673C106.719 25.673 105.413 23.4961 105.413 19.1424C105.413 16.8837 105.726 15.2848 106.353 14.3459C106.623 13.939 106.985 13.6013 107.41 13.3603C107.835 13.1192 108.311 12.9814 108.799 12.9581V8.79704C107.561 8.78968 106.335 9.02739 105.19 9.49644C104.045 9.9655 103.004 10.6566 102.127 11.5299C100.399 13.3667 99.5352 16.0198 99.5352 19.4894C99.5352 22.959 100.311 25.5513 101.862 27.2663C103.413 28.9797 105.801 29.8367 109.026 29.8373C112.252 29.8378 114.742 28.8786 116.495 26.9597C118.249 25.0413 119.126 22.3473 119.126 18.8777C119.126 18.3885 119.108 17.919 119.077 17.466L113.152 17.4652Z" fill="#00997B"/>
<path d="M115.335 10.8516H112.947V13.2392H115.335V10.8516Z" fill="#00997B"/>
<path d="M118.268 10.9062H116.086V13.0891H118.268V10.9062Z" fill="#00997B"/>
<path d="M117.879 8.16016H116.137V9.90234H117.879V8.16016Z" fill="#00997B"/>
<path d="M117.87 14.2188H116.139V15.9502H117.87V14.2188Z" fill="#00997B"/>
<path d="M112.259 10.8789H110.021V13.116H112.259V10.8789Z" fill="#00997B"/>
<g opacity="0.8">
<path d="M120.563 11.084H118.775V12.8714H120.563V11.084Z" fill="#00997B"/>
</g>
<g opacity="0.8">
<path d="M114.8 5.91797H113.438V7.28031H114.8V5.91797Z" fill="#00997B"/>
</g>
<g opacity="0.4">
<path d="M117.604 5.92578H116.256V7.27414H117.604V5.92578Z" fill="#00997B"/>
</g>
<g opacity="0.2">
<path d="M119.909 6.05859H118.824V7.14304H119.909V6.05859Z" fill="#00997B"/>
</g>
<g opacity="0.3">
<path d="M120.14 8.49219H119.004V9.62761H120.14V8.49219Z" fill="#00997B"/>
</g>
<path d="M112.009 8.16016H110.266V9.90316H112.009V8.16016Z" fill="#00997B"/>
<path d="M115.157 7.91992H113.029V10.0485H115.157V7.91992Z" fill="#00997B"/>
<path d="M115.172 14.0312H113.018V16.1862H115.172V14.0312Z" fill="#00997B"/>
</svg>
